<svg xmlns="http://www.w3.org/2000/svg" version="1.1" xmlns:xlink="http://www.w3.org/1999/xlink" width="30" height="30" x="0" y="0" viewBox="0 0 32 32" xml:space="preserve"><g><path d="m29.97 9.243-2.81 11.242A1.997 1.997 0 0 1 25.219 22H7.89a1.999 1.999 0 0 1-1.986-1.768L3.879 4H2.5a1.5 1.5 0 1 1 0-3h2.687a1.5 1.5 0 0 1 1.486 1.296L7.455 8H29a1 1 0 0 1 .97 1.243zM7 27c0 1.654 1.346 3 3 3s3-1.346 3-3-1.346-3-3-3-3 1.346-3 3zM25 27c0-1.654-1.346-3-3-3s-3 1.346-3 3 1.346 3 3 3 3-1.346 3-3z" fill="#c1e476" opacity="1" data-original="#000000"></path></g></svg>