<svg xmlns="http://www.w3.org/2000/svg" version="1.1" xmlns:xlink="http://www.w3.org/1999/xlink" width="35" height="35" x="0" y="0" viewBox="0 0 72 72" xml:space="preserve"><g><path d="M4.75 68h62.5c.41 0 .75-.34.75-.75V63.3c0-.41-.34-.75-.75-.75H55.92v-5.39c1.76-.55 6.24-2.03 7.39-3.18 1.52-1.52 1.52-3.99 0-5.51s-3.99-1.52-5.51.01c-.6.6-1.28 2.09-1.88 3.63v-5.55c1.76-.55 6.24-2.03 7.39-3.18 1.52-1.52 1.52-3.99 0-5.51s-3.99-1.52-5.51.01c-.6.6-1.28 2.09-1.88 3.63v-5.55c1.76-.55 6.24-2.03 7.39-3.18 1.52-1.52 1.52-3.99 0-5.51s-3.99-1.52-5.51.01c-.6.6-1.28 2.09-1.88 3.63v-3.84c.7-1.31 3.15-6.04 3.15-7.79 0-2.15-1.75-3.9-3.9-3.9s-3.89 1.75-3.89 3.9c0 1.75 2.46 6.51 3.15 7.8v2.8c-.6-1.54-1.28-3.03-1.88-3.63a3.85 3.85 0 0 0-2.75-1.14h-.01c-1.04 0-2.02.4-2.75 1.14-.74.74-1.14 1.71-1.14 2.76s.41 2.02 1.14 2.76c1.15 1.15 5.63 2.63 7.39 3.18v5.55c-.6-1.54-1.28-3.03-1.88-3.63a3.85 3.85 0 0 0-2.75-1.14c-1.06 0-2.02.4-2.76 1.14s-1.14 1.71-1.14 2.76.41 2.02 1.14 2.76c1.15 1.15 5.63 2.63 7.39 3.18v5.55c-.6-1.54-1.28-3.03-1.88-3.63a3.85 3.85 0 0 0-2.75-1.14h-.01c-1.04 0-2.02.4-2.75 1.14-.74.74-1.14 1.71-1.14 2.76s.41 2.02 1.14 2.76c1.15 1.15 5.63 2.63 7.39 3.18v6.42H36.75v-4.24c1.53-.48 5.13-1.68 6.08-2.63 1.31-1.31 1.31-3.44 0-4.75s-3.43-1.31-4.74 0c-.42.42-.9 1.37-1.34 2.43v-3.84c1.53-.48 5.13-1.68 6.08-2.63a3.362 3.362 0 0 0 0-4.75c-.63-.63-1.47-.98-2.37-.98h-.01c-.9 0-1.74.35-2.37.98-.42.42-.9 1.37-1.34 2.43v-3.84c1.53-.48 5.13-1.68 6.08-2.64 1.31-1.31 1.31-3.44 0-4.75s-3.44-1.3-4.74 0c-.42.42-.9 1.37-1.34 2.43v-2.48c.6-1.13 2.6-5.02 2.6-6.48 0-1.85-1.51-3.36-3.36-3.36s-3.35 1.51-3.35 3.36c0 1.47 2.01 5.38 2.6 6.49v1.62c-.44-1.06-.91-2.01-1.34-2.43-.63-.63-1.48-.98-2.37-.98h-.01c-.9 0-1.74.35-2.37.98a3.362 3.362 0 0 0 0 4.75c.95.95 4.56 2.16 6.08 2.63v3.84c-.44-1.06-.91-2.01-1.34-2.43a3.35 3.35 0 0 0-4.74 0 3.362 3.362 0 0 0 0 4.75c.95.95 4.56 2.16 6.08 2.64v3.84c-.44-1.06-.91-2.01-1.34-2.43-.63-.63-1.48-.98-2.37-.98h-.01c-.9 0-1.74.35-2.37.98a3.362 3.362 0 0 0 0 4.75c.95.95 4.56 2.16 6.08 2.63v5.09H17.58v-2.27c1.76-.55 6.24-2.03 7.39-3.18 1.52-1.52 1.52-3.99 0-5.51s-3.99-1.52-5.51.01c-.6.6-1.28 2.09-1.88 3.63v-5.55c1.76-.55 6.24-2.03 7.39-3.18 1.52-1.52 1.52-3.99 0-5.51s-3.99-1.51-5.51.01c-.6.6-1.28 2.09-1.88 3.63v-5.55c1.76-.55 6.24-2.03 7.39-3.18 1.52-1.52 1.52-3.99 0-5.51s-3.99-1.51-5.51.01c-.6.6-1.28 2.09-1.88 3.63v-5.55c1.76-.55 6.24-2.03 7.39-3.18 1.52-1.52 1.52-3.99 0-5.51s-3.99-1.51-5.51.01c-.6.6-1.28 2.09-1.88 3.63v-3.84c.7-1.31 3.15-6.04 3.15-7.79 0-2.15-1.75-3.9-3.9-3.9s-3.89 1.75-3.89 3.9c0 1.75 2.46 6.51 3.15 7.8v2.8c-.6-1.54-1.28-3.03-1.88-3.63a3.85 3.85 0 0 0-2.75-1.14h-.01c-1.04 0-2.02.4-2.75 1.14-.74.74-1.14 1.71-1.14 2.76s.41 2.02 1.14 2.76c1.15 1.15 5.63 2.63 7.39 3.18v5.55c-.6-1.54-1.28-3.03-1.88-3.63a3.85 3.85 0 0 0-2.75-1.14h-.01c-1.04 0-2.02.4-2.75 1.14-.74.74-1.14 1.71-1.14 2.76s.41 2.02 1.14 2.76c1.15 1.15 5.63 2.63 7.39 3.18v5.55c-.6-1.54-1.28-3.03-1.88-3.63a3.85 3.85 0 0 0-2.75-1.14h-.01c-1.04 0-2.02.4-2.75 1.14-.74.74-1.14 1.71-1.14 2.76s.41 2.02 1.14 2.76c1.15 1.15 5.63 2.63 7.39 3.18v5.55c-.6-1.54-1.28-3.03-1.88-3.63a3.85 3.85 0 0 0-2.75-1.14h-.01c-1.04 0-2.02.4-2.75 1.14-.74.74-1.14 1.71-1.14 2.76s.41 2.02 1.14 2.76c1.15 1.15 5.63 2.63 7.39 3.18v3.3H4.75c-.41-.13-.75.2-.75.62v3.95c0 .41.34.74.75.74zm54.11-18.45c.47-.47 1.08-.7 1.7-.7.61 0 1.22.23 1.69.7.94.94.94 2.46 0 3.39-.66.66-3.58 1.76-5.93 2.53.77-2.35 1.88-5.26 2.54-5.92zm0-10.62c.47-.47 1.08-.7 1.7-.7.61 0 1.22.23 1.69.7.94.94.94 2.46 0 3.39-.66.66-3.58 1.76-5.93 2.53.77-2.34 1.88-5.26 2.54-5.92zm0-10.61c.47-.47 1.08-.7 1.7-.7.61 0 1.22.23 1.69.7.94.94.94 2.46 0 3.39-.66.66-3.58 1.76-5.93 2.53.77-2.34 1.88-5.26 2.54-5.92zm-10.77 2.36a2.416 2.416 0 0 1 0-3.4c.45-.45 1.05-.7 1.69-.7.64 0 1.24.25 1.7.7.66.66 1.76 3.58 2.54 5.92-2.35-.76-5.27-1.86-5.93-2.52zm0 10.61a2.416 2.416 0 0 1 0-3.4c.45-.45 1.05-.7 1.69-.7.66.03 1.25.25 1.7.7.66.66 1.76 3.58 2.54 5.92-2.35-.76-5.27-1.86-5.93-2.52zm0 10.61a2.416 2.416 0 0 1 0-3.4c.45-.45 1.05-.7 1.69-.7.64 0 1.24.25 1.7.7.66.66 1.76 3.58 2.54 5.92-2.35-.75-5.27-1.86-5.93-2.52zm7.08-35.04c1.32 0 2.4 1.08 2.4 2.4 0 .93-1.28 3.78-2.4 5.98-1.11-2.2-2.39-5.05-2.39-5.98a2.386 2.386 0 0 1 2.39-2.4zM39.15 52c.36-.36.84-.54 1.32-.54.47 0 .95.18 1.31.54.72.72.72 1.9 0 2.63-.49.49-2.67 1.34-4.61 1.99.64-1.95 1.49-4.13 1.98-4.62zm0-8.79c.35-.35.82-.54 1.31-.55.49 0 .96.19 1.31.54.72.72.72 1.9 0 2.63-.49.49-2.67 1.34-4.61 1.99.65-1.94 1.5-4.12 1.99-4.61zm0-8.79c.36-.36.84-.54 1.32-.54.47 0 .95.18 1.31.54.72.72.72 1.9 0 2.63-.49.49-2.67 1.34-4.61 1.99.64-1.95 1.49-4.13 1.98-4.62zm-8.92 1.77c-.72-.72-.72-1.9 0-2.63.35-.35.81-.54 1.31-.54s.96.19 1.31.55c.49.49 1.34 2.67 1.99 4.61-1.94-.65-4.12-1.5-4.61-1.99zm0 8.79c-.72-.72-.72-1.9 0-2.63.36-.36.83-.54 1.31-.54s.95.18 1.32.54c.49.49 1.34 2.67 1.99 4.61-1.95-.64-4.13-1.49-4.62-1.98zm0 8.79c-.72-.72-.72-1.9 0-2.63.35-.35.81-.54 1.31-.54s.96.19 1.31.55c.49.49 1.34 2.67 1.99 4.61-1.94-.65-4.12-1.5-4.61-1.99zM36 24.97c1.02 0 1.86.83 1.86 1.86 0 .69-.94 2.84-1.86 4.67-.91-1.83-1.85-3.98-1.85-4.67 0-1.03.83-1.86 1.85-1.86zM20.52 52.66c.47-.47 1.08-.7 1.7-.7.61 0 1.22.23 1.69.7.94.94.94 2.46 0 3.39-.66.66-3.58 1.76-5.93 2.53.78-2.34 1.88-5.26 2.54-5.92zm0-10.61c.47-.47 1.08-.7 1.7-.7.61 0 1.22.23 1.69.7.94.94.94 2.46 0 3.39-.66.66-3.58 1.76-5.93 2.53.78-2.35 1.88-5.26 2.54-5.92zm0-10.62c.47-.47 1.08-.7 1.7-.7.61 0 1.22.23 1.69.7.94.94.94 2.46 0 3.39-.66.66-3.58 1.76-5.93 2.53.78-2.34 1.88-5.26 2.54-5.92zm0-10.61c.47-.47 1.08-.7 1.7-.7.61 0 1.22.23 1.69.7.94.94.94 2.46 0 3.39-.66.66-3.58 1.76-5.93 2.53.78-2.34 1.88-5.26 2.54-5.92zM9.75 23.18a2.416 2.416 0 0 1 0-3.4c.45-.45 1.05-.7 1.69-.7.64 0 1.24.25 1.7.7.66.66 1.76 3.58 2.54 5.92-2.35-.76-5.27-1.86-5.93-2.52zm0 10.61a2.416 2.416 0 0 1 0-3.4c.45-.45 1.05-.7 1.69-.7.64 0 1.24.25 1.7.7.66.66 1.76 3.58 2.54 5.92-2.35-.76-5.27-1.86-5.93-2.52zm0 10.61a2.416 2.416 0 0 1 0-3.4c.45-.45 1.05-.7 1.69-.7.64 0 1.24.25 1.7.7.66.66 1.76 3.58 2.54 5.92-2.35-.75-5.27-1.86-5.93-2.52zm0 10.62a2.416 2.416 0 0 1 0-3.4c.45-.45 1.05-.7 1.69-.7.64 0 1.24.25 1.7.7.66.66 1.76 3.58 2.54 5.92-2.35-.76-5.27-1.87-5.93-2.52zm7.08-45.66c1.32 0 2.4 1.08 2.4 2.4 0 .93-1.28 3.78-2.4 5.98-1.11-2.2-2.39-5.05-2.39-5.98 0-1.33 1.07-2.4 2.39-2.4zM5.5 64.06h61v2.45h-61zM57.33 10.07c1.02 0 1.98.4 2.71 1.12.72.73 1.12 1.69 1.12 2.71 0 .41.34.75.75.75s.75-.34.75-.75c0-2.11 1.72-3.83 3.83-3.83.41 0 .75-.34.75-.75s-.34-.75-.75-.75c-1.02 0-1.98-.4-2.7-1.12a3.838 3.838 0 0 1-1.12-2.71c-.02-.41-.35-.74-.77-.74s-.75.34-.75.75c0 1.02-.4 1.98-1.12 2.71-.73.72-1.69 1.12-2.71 1.12-.41 0-.75.34-.75.75s.34.74.76.74zm3.77-1.56c.31-.32.58-.66.81-1.04.22.37.49.72.81 1.04.32.31.67.58 1.04.81a5.37 5.37 0 0 0-1.85 1.85c-.22-.38-.5-.73-.81-1.04-.32-.31-.66-.58-1.04-.81.37-.22.72-.49 1.04-.81z" fill="#c1e476" opacity="1" data-original="#000000"></path><path d="M25.92 12.88c.8 0 1.55.31 2.11.87a3 3 0 0 1 .87 2.11c0 .41.34.75.75.75s.75-.34.75-.75c0-1.65 1.34-2.99 2.99-2.99.41 0 .75-.34.75-.75s-.34-.75-.75-.75c-.8 0-1.55-.31-2.11-.87-.56-.57-.88-1.32-.88-2.11 0-.41-.34-.75-.75-.75s-.75.34-.75.75c0 .8-.31 1.55-.87 2.11-.57.56-1.32.88-2.11.88-.41 0-.75.34-.75.75s.34.75.75.75zm3.18-1.31c.21-.21.4-.44.56-.69.16.24.35.48.56.69s.44.4.69.56c-.49.33-.92.76-1.25 1.25-.16-.25-.35-.48-.57-.69-.21-.21-.44-.4-.69-.56.25-.16.48-.35.7-.56zM41.53 23.06c.15.15.34.22.53.22s.38-.07.53-.22l1.57-1.57 1.57 1.57c.15.15.34.22.53.22s.38-.07.53-.22c.29-.29.29-.77 0-1.06l-1.57-1.57 1.57-1.57c.29-.29.29-.77 0-1.06s-.77-.29-1.06 0l-1.57 1.57-1.57-1.57c-.29-.29-.77-.29-1.06 0s-.29.77 0 1.06l1.57 1.57L41.53 22c-.29.3-.29.77 0 1.06zM4.67 10.3c.15.15.34.22.53.22s.38-.07.53-.22L7 9.04l1.26 1.26c.15.15.34.22.53.22s.38-.07.53-.22c.29-.29.29-.77 0-1.06L8.06 7.97l1.26-1.26c.29-.29.29-.77 0-1.06s-.77-.29-1.06 0L7 6.91 5.73 5.65c-.29-.29-.77-.29-1.06 0s-.29.77 0 1.06l1.26 1.26-1.26 1.27c-.29.29-.29.77 0 1.06z" fill="#c1e476" opacity="1" data-original="#000000"></path></g></svg>