<svg xmlns="http://www.w3.org/2000/svg" version="1.1" xmlns:xlink="http://www.w3.org/1999/xlink" width="33" height="33" x="0" y="0" viewBox="0 0 512 512" xml:space="preserve"><g><path d="M359.697 409.256s-4.786-7.977-23.93-7.977-31.907 9.548-31.907 23.93c0 31.907 63.814 16.312 63.814 47.86 0 14.39-12.763 23.93-31.907 23.93s-23.93-7.977-23.93-7.977M263.977 401.28h-39.884V497h39.884M259.988 449.14h-35.895M88.489 401.28h-47.86V497M76.524 457.117H40.629M415.534 497v-95.72M471.371 497v-95.72M415.534 449.14h55.837M128.373 497v-95.72h19.942a28.05 28.05 0 0 1 19.782 8.176 28.072 28.072 0 0 1 8.136 19.727v.032a28.073 28.073 0 0 1-8.136 19.734 28.042 28.042 0 0 1-19.782 8.169h-19.942 15.953L176.233 497M256 15S94.791 176.233 225.768 307.234L256 337.466l30.232-30.232C417.209 176.233 256 15 256 15zM256 337.466V158.581M256 337.466 129.49 210.979M256 337.466l126.51-126.487" style="stroke-width: 21; stroke-linecap: round; stroke-linejoin: round; stroke-miterlimit: 10;" fill="none" stroke="#c1e476" stroke-width="21" stroke-linecap="round" stroke-linejoin="round" stroke-miterlimit="10" data-original="#000000" opacity="1"></path><path d="M256 337.466h-42.755c-185.298 0-185.298-228.014-185.298-228.014s84.792 0 150.998 42.021c-10.928 48.929-4.307 104.646 46.823 155.761L256 337.466zM333.055 151.473c10.928 48.929 4.307 104.646-46.823 155.761L256 337.466h42.755c185.298 0 185.298-228.014 185.298-228.014s-84.792 0-150.998 42.021z" style="stroke-width: 21; stroke-linecap: round; stroke-linejoin: round; stroke-miterlimit: 10;" fill="none" stroke="#c1e476" stroke-width="21" stroke-linecap="round" stroke-linejoin="round" stroke-miterlimit="10" data-original="#000000" opacity="1"></path></g></svg>