<svg xmlns="http://www.w3.org/2000/svg" version="1.1" xmlns:xlink="http://www.w3.org/1999/xlink" width="40" height="40" x="0" y="0" viewBox="0 0 64 64" xml:space="preserve"><g transform="matrix(0.9999999999999991,0,0,0.9999999999999991,2.4868995751603507e-14,1.4210854715202004e-14)"><path d="M52.19 21.24a4.188 4.188 0 0 0-2.21-6.78l-1.78-.43a2.181 2.181 0 0 1-1.66-2.29l.14-1.82c.11-1.46-.53-2.85-1.72-3.71a4.142 4.142 0 0 0-4.05-.48l-1.69.69c-1 .41-2.13.04-2.69-.87l-.97-1.56C34.79 2.74 33.46 2 32 2s-2.79.74-3.56 1.99l-.97 1.56c-.56.91-1.69 1.28-2.69.87l-1.69-.69a4.142 4.142 0 0 0-4.05.48 4.162 4.162 0 0 0-1.72 3.71l.14 1.82c.08 1.07-.62 2.04-1.66 2.29l-1.78.43a4.188 4.188 0 0 0-2.21 6.78l1.19 1.4c.69.82.69 2.01 0 2.83l-1.19 1.4a4.174 4.174 0 0 0-.79 4c.1.31.24.61.41.88.56.94 1.48 1.63 2.59 1.9l1.78.43c1.04.25 1.74 1.22 1.66 2.29l-.14 1.83c-.02.3-.01.6.03.89-.69 1.14-1.32 2.37-1.87 3.62-3.06 6.83-4.23 14.49-4.29 14.88-.06.38.11.77.44.98.33.22.75.22 1.08.01 2.98-1.9 6.16-3.24 7.57-3.79 1.92 3.11 4.54 6.65 4.66 6.81.19.25.49.4.8.4a1.007 1.007 0 0 0 .99-.84c.76-4.84 2.09-9.28 3.35-12.76.31-.87.62-1.68.92-2.42.32.09.66.13 1 .13s.68-.04 1-.13c.3.74.61 1.55.92 2.42 1.26 3.48 2.59 7.92 3.35 12.76a1.007 1.007 0 0 0 .99.84c.31 0 .61-.15.8-.4.12-.16 2.74-3.7 4.66-6.81 1.41.55 4.59 1.89 7.57 3.79.33.21.75.21 1.08-.01.33-.21.5-.6.44-.98-.06-.39-1.23-8.05-4.29-14.88-.55-1.25-1.18-2.48-1.87-3.62.04-.29.05-.59.03-.89l-.14-1.83c-.08-1.07.62-2.04 1.66-2.29l1.78-.43c1.11-.27 2.03-.96 2.59-1.9.17-.27.31-.57.41-.88.45-1.39.15-2.89-.79-4L51 25.47c-.69-.82-.69-2.01 0-2.83zM25.17 58.5c-1.06-1.5-2.53-3.64-3.6-5.45a.992.992 0 0 0-1.19-.43c-.16.05-3.33 1.17-6.82 3.13.54-2.65 1.66-7.37 3.52-11.73 2.9 2.11 6.69 3.6 10.94 4.18-1.03 2.92-2.09 6.45-2.85 10.3zm25.27-2.75c-3.49-1.96-6.66-3.08-6.82-3.13a.992.992 0 0 0-1.19.43c-1.07 1.81-2.54 3.95-3.6 5.45a74.573 74.573 0 0 0-2.85-10.3c4.25-.58 8.04-2.07 10.94-4.18 1.86 4.36 2.98 9.08 3.52 11.73zm-.96-34.4a4.155 4.155 0 0 0-.9 3.62c.15.64.45 1.26.9 1.79l1.18 1.4c.5.58.65 1.37.41 2.09-.23.73-.82 1.27-1.56 1.45l-1.78.44c-2 .48-3.34 2.33-3.18 4.38l.13 1.83c.02.23 0 .46-.05.69-.12.49-.41.92-.84 1.24-.62.45-1.41.55-2.12.25l-1.69-.69a4.185 4.185 0 0 0-5.16 1.67l-.96 1.56c-.18.29-.42.53-.7.7-.06.04-.12.08-.19.1-.29.16-.63.24-.97.24s-.68-.08-.97-.24q-.01 0-.02-.01a.7.7 0 0 0-.17-.09c-.28-.17-.52-.41-.7-.7l-.96-1.56a4.193 4.193 0 0 0-3.56-1.99c-.53 0-1.08.1-1.6.32l-1.69.69c-.71.3-1.5.2-2.12-.25a2.19 2.19 0 0 1-.84-1.24c-.05-.23-.07-.46-.05-.69l.13-1.83c.16-2.05-1.18-3.9-3.18-4.38l-1.78-.44c-.74-.18-1.33-.72-1.56-1.45-.24-.72-.09-1.51.41-2.09l1.18-1.4c.45-.53.75-1.15.9-1.79.28-1.25-.02-2.59-.9-3.62l-1.18-1.4c-.5-.58-.65-1.37-.41-2.09.23-.73.82-1.27 1.56-1.45l1.78-.44c2-.48 3.34-2.33 3.18-4.38l-.13-1.83c-.06-.76.27-1.48.89-1.93s1.41-.54 2.12-.25l1.69.69c1.91.78 4.07.08 5.16-1.67l.96-1.56C30.54 4.39 31.24 4 32 4s1.46.39 1.86 1.04l.96 1.56a4.185 4.185 0 0 0 5.16 1.67l1.69-.69c.71-.29 1.5-.2 2.12.25s.95 1.17.89 1.93l-.13 1.83a4.158 4.158 0 0 0 3.18 4.38l1.78.44c.74.18 1.33.72 1.56 1.45.24.72.09 1.51-.41 2.09z" fill="#c1e476" opacity="1" data-original="#000000"></path><path d="M32 10.61c-6.91 0-12.61 5.24-13.35 11.96-.06.49-.09.99-.09 1.49 0 7.41 6.03 13.44 13.44 13.44s13.44-6.03 13.44-13.44c0-.5-.03-1-.09-1.49-.74-6.72-6.44-11.96-13.35-11.96zm0 24.89c-6.31 0-11.44-5.13-11.44-11.44 0-.9.1-1.79.31-2.63 1.18-5.05 5.72-8.82 11.13-8.82s9.95 3.77 11.13 8.82c.21.84.31 1.73.31 2.63 0 6.31-5.13 11.44-11.44 11.44z" fill="#c1e476" opacity="1" data-original="#000000"></path><path d="m36.552 20.113-5.763 5.763-3.342-3.342a.999.999 0 1 0-1.414 1.414l4.049 4.049a.997.997 0 0 0 1.414 0l6.47-6.47a.999.999 0 1 0-1.414-1.414z" fill="#c1e476" opacity="1" data-original="#000000"></path></g></svg>