<svg xmlns="http://www.w3.org/2000/svg" version="1.1" xmlns:xlink="http://www.w3.org/1999/xlink" width="60" height="60" x="0" y="0" viewBox="0 0 64 64" xml:space="preserve" fill-rule="evenodd"><g><path d="M33.131 28.68c-3.818 3.513-7.544 6.84-7.544 6.84a1.25 1.25 0 1 0 1.665 1.864s9.762-8.714 13.93-12.882c.637-.636.828-1.122.862-1.325a1.242 1.242 0 0 0-.353-1.14 1.294 1.294 0 0 0-.905-.398c-.212-.01-.684.073-1.319.372-3.633 1.71-18.08 11.334-18.08 11.334a1.25 1.25 0 1 0 1.386 2.08s5.378-3.586 10.358-6.745z" fill="#c1e476" opacity="1" data-original="#000000"></path><path d="M32 2.75C15.856 2.75 2.75 15.856 2.75 32S15.856 61.25 32 61.25 61.25 48.144 61.25 32 48.144 2.75 32 2.75zm0 2.5c14.764 0 26.75 11.986 26.75 26.75S46.764 58.75 32 58.75 5.25 46.764 5.25 32 17.236 5.25 32 5.25z" fill="#c1e476" opacity="1" data-original="#000000"></path><path d="m21.076 35.375 2.675 8.702c.01.032.021.064.033.094.285.715.57 1.13.775 1.327.37.356.749.438 1.063.43.442-.013 1.154-.277 1.436-1.325.02-.077.034-.155.04-.234l.404-5.57 10.567 7.773c1.086.824 2.062.999 2.801.773.763-.233 1.502-.932 1.851-2.42.002-.008.005-.017.006-.026l5.216-24.577c.31-1.309.136-2.287-.29-2.858-.493-.665-1.426-1.117-3.013-.688a1 1 0 0 0-.126.041L13.878 28.7c-.047.018-.093.04-.139.063-1.451.78-1.774 1.67-1.779 2.248-.005.777.54 1.529 1.465 1.9.028.011.055.022.084.03zm24.516-16.242c-.012.178-.036.42-.085.623l-.008.033-5.214 24.574a3.26 3.26 0 0 1-.19.518 3.37 3.37 0 0 1-.518-.305l-.019-.013-12.399-9.119a1.251 1.251 0 0 0-1.987.917l-.225 3.096-1.673-5.44a1.251 1.251 0 0 0-.812-.822l-7.247-2.332 30.132-11.687a2.55 2.55 0 0 1 .245-.043z" fill="#c1e476" opacity="1" data-original="#000000"></path><path d="m26.442 45.617 5.435-4.694a1.25 1.25 0 0 0-1.634-1.893l-5.434 4.694a1.25 1.25 0 1 0 1.633 1.893z" fill="#c1e476" opacity="1" data-original="#000000"></path></g></svg>