<svg xmlns="http://www.w3.org/2000/svg" version="1.1" xmlns:xlink="http://www.w3.org/1999/xlink" width="30" height="30" x="0" y="0" viewBox="0 0 682.667 682.667" xml:space="preserve"><g><defs stroke-width="18" style="stroke-width: 18;"><clipPath id="a" clipPathUnits="userSpaceOnUse" stroke-width="18" style="stroke-width: 18;"><path d="M0 512h512V0H0Z" fill="#c1e476" opacity="1" data-original="#000000" stroke-width="18" style="stroke-width: 18;"></path></clipPath><clipPath id="b" clipPathUnits="userSpaceOnUse" stroke-width="18" style="stroke-width: 18;"><path d="M0 512h512V0H0Z" fill="#c1e476" opacity="1" data-original="#000000" stroke-width="18" style="stroke-width: 18;"></path></clipPath></defs><path d="m0 0 5.001 3.979" style="stroke-width: 18; stroke-linecap: round; stroke-linejoin: round; stroke-miterlimit: 10; stroke-dasharray: none; stroke-opacity: 1;" transform="matrix(1.33333 0 0 -1.33333 514.7 384.937)" fill="none" stroke="#c1e476" stroke-width="18" stroke-linecap="round" stroke-linejoin="round" stroke-miterlimit="10" stroke-dasharray="none" stroke-opacity="" data-original="#000000" opacity="1"></path><path d="m0 0 4.161-4.874" style="stroke-width: 18; stroke-linecap: round; stroke-linejoin: round; stroke-miterlimit: 10; stroke-dasharray: none; stroke-opacity: 1;" transform="matrix(1.33333 0 0 -1.33333 508.43 556.406)" fill="none" stroke="#c1e476" stroke-width="18" stroke-linecap="round" stroke-linejoin="round" stroke-miterlimit="10" stroke-dasharray="none" stroke-opacity="" data-original="#000000" opacity="1"></path><path d="m0 0 6.936-3.041" style="stroke-width: 18; stroke-linecap: round; stroke-linejoin: round; stroke-miterlimit: 10; stroke-dasharray: none; stroke-opacity: 1;" transform="matrix(1.33333 0 0 -1.33333 545.525 515.895)" fill="none" stroke="#c1e476" stroke-width="18" stroke-linecap="round" stroke-linejoin="round" stroke-miterlimit="10" stroke-dasharray="none" stroke-opacity="" data-original="#000000" opacity="1"></path><path d="m0 0 9.044-.481" style="stroke-width: 18; stroke-linecap: round; stroke-linejoin: round; stroke-miterlimit: 10; stroke-dasharray: none; stroke-opacity: 1;" transform="matrix(1.33333 0 0 -1.33333 557.482 465.591)" fill="none" stroke="#c1e476" stroke-width="18" stroke-linecap="round" stroke-linejoin="round" stroke-miterlimit="10" stroke-dasharray="none" stroke-opacity="" data-original="#000000" opacity="1"></path><path d="m0 0 7.249 3.583" style="stroke-width: 18; stroke-linecap: round; stroke-linejoin: round; stroke-miterlimit: 10; stroke-dasharray: none; stroke-opacity: 1;" transform="matrix(1.33333 0 0 -1.33333 547.816 415.93)" fill="none" stroke="#c1e476" stroke-width="18" stroke-linecap="round" stroke-linejoin="round" stroke-miterlimit="10" stroke-dasharray="none" stroke-opacity="" data-original="#000000" opacity="1"></path><path d="m0 0-5.001 3.979" style="stroke-width: 18; stroke-linecap: round; stroke-linejoin: round; stroke-miterlimit: 10; stroke-dasharray: none; stroke-opacity: 1;" transform="matrix(1.33333 0 0 -1.33333 375.983 384.937)" fill="none" stroke="#c1e476" stroke-width="18" stroke-linecap="round" stroke-linejoin="round" stroke-miterlimit="10" stroke-dasharray="none" stroke-opacity="" data-original="#000000" opacity="1"></path><path d="m0 0-4.161-4.874" style="stroke-width: 18; stroke-linecap: round; stroke-linejoin: round; stroke-miterlimit: 10; stroke-dasharray: none; stroke-opacity: 1;" transform="matrix(1.33333 0 0 -1.33333 382.253 556.406)" fill="none" stroke="#c1e476" stroke-width="18" stroke-linecap="round" stroke-linejoin="round" stroke-miterlimit="10" stroke-dasharray="none" stroke-opacity="" data-original="#000000" opacity="1"></path><path d="m0 0-6.936-3.041" style="stroke-width: 18; stroke-linecap: round; stroke-linejoin: round; stroke-miterlimit: 10; stroke-dasharray: none; stroke-opacity: 1;" transform="matrix(1.33333 0 0 -1.33333 345.158 515.895)" fill="none" stroke="#c1e476" stroke-width="18" stroke-linecap="round" stroke-linejoin="round" stroke-miterlimit="10" stroke-dasharray="none" stroke-opacity="" data-original="#000000" opacity="1"></path><path d="m0 0-9.043-.481" style="stroke-width: 18; stroke-linecap: round; stroke-linejoin: round; stroke-miterlimit: 10; stroke-dasharray: none; stroke-opacity: 1;" transform="matrix(1.33333 0 0 -1.33333 333.2 465.591)" fill="none" stroke="#c1e476" stroke-width="18" stroke-linecap="round" stroke-linejoin="round" stroke-miterlimit="10" stroke-dasharray="none" stroke-opacity="" data-original="#000000" opacity="1"></path><path d="m0 0-7.25 3.583" style="stroke-width: 18; stroke-linecap: round; stroke-linejoin: round; stroke-miterlimit: 10; stroke-dasharray: none; stroke-opacity: 1;" transform="matrix(1.33333 0 0 -1.33333 342.866 415.93)" fill="none" stroke="#c1e476" stroke-width="18" stroke-linecap="round" stroke-linejoin="round" stroke-miterlimit="10" stroke-dasharray="none" stroke-opacity="" data-original="#000000" opacity="1"></path><g clip-path="url(#a)" transform="matrix(1.33333 0 0 -1.33333 0 682.667)" stroke-width="18" style="stroke-width: 18;"><path d="M0 0c-21.211-.823-38.146-8.831-50.342-23.767C-60.496-36.2-67.814-55.108-69.821-81.793c-.62-8.246 5.911-15.283 14.181-15.283 7.496 0 13.672 5.819 14.182 13.298 1.014 14.873 4.509 31.189 13.324 41.949 6.877 8.394 16.441 12.72 29.26 13.226 7.902.292 14.049 6.965 13.738 14.865C14.554-5.84 7.898.311 0 0Z" style="stroke-width: 18; stroke-linecap: round; stroke-linejoin: round; stroke-miterlimit: 10; stroke-dasharray: none; stroke-opacity: 1;" transform="translate(272.052 501.719)" fill="none" stroke="#c1e476" stroke-width="18" stroke-linecap="round" stroke-linejoin="round" stroke-miterlimit="10" stroke-dasharray="none" stroke-opacity="" data-original="#000000" opacity="1"></path><path d="M0 0c-33.007 4.433-65.732 7.44-100.02-7.033-6.532-2.757-5.071-12.4 1.967-13.266 20.081-2.47 34.888-8.675 43.646-13.342 4.423-2.357 4.959-8.492.96-11.512-8.388-6.336-20.625-17.039-24.217-27.821-1.811-5.437 2.994-10.773 8.585-9.516l44.324 9.963c5.491 1.234 11.124-1.507 13.479-6.619 4.017-8.72 11.422-21.134 21.93-23.993a.105.105 0 0 1 .019.015.315.315 0 0 1 .019-.015c10.509 2.859 17.913 15.273 21.931 23.993 2.355 5.112 7.987 7.853 13.479 6.619l44.323-9.963c5.592-1.257 10.397 4.079 8.585 9.516-3.591 10.782-15.829 21.485-24.216 27.821-3.999 3.02-3.463 9.155.959 11.512 8.759 4.667 23.565 10.872 43.647 13.342 7.037.866 8.499 10.509 1.966 13.266C89.694 6.337 59.356 4.79 28.896.982" style="stroke-width: 18; stroke-linecap: round; stroke-linejoin: round; stroke-miterlimit: 10; stroke-dasharray: none; stroke-opacity: 1;" transform="translate(203.373 430.63)" fill="none" stroke="#c1e476" stroke-width="18" stroke-linecap="round" stroke-linejoin="round" stroke-miterlimit="10" stroke-dasharray="none" stroke-opacity="" data-original="#000000" opacity="1"></path><path d="M0 0c-19.307-3.463-39.104-3.29-58.419.131-82.914 14.685-139.704-27.648-139.704-111.471 0-93.41 75.725-169.135 169.136-169.135S140.148-204.75 140.148-111.34C140.148-27.27 83.987 15.065 0 0Z" style="stroke-width: 18; stroke-linecap: round; stroke-linejoin: round; stroke-miterlimit: 10; stroke-dasharray: none; stroke-opacity: 1;" transform="translate(364.352 290.745)" fill="none" stroke="#c1e476" stroke-width="18" stroke-linecap="round" stroke-linejoin="round" stroke-miterlimit="10" stroke-dasharray="none" stroke-opacity="" data-original="#000000" opacity="1"></path><path d="M0 0c-65.455-15.657-106.321-62.303-106.321-141.317 0-98.713 69.249-181.253 161.818-201.69" style="stroke-width: 18; stroke-linecap: round; stroke-linejoin: round; stroke-miterlimit: 10; stroke-dasharray: none; stroke-opacity: 1;" transform="translate(113.82 409.019)" fill="none" stroke="#c1e476" stroke-width="18" stroke-linecap="round" stroke-linejoin="round" stroke-miterlimit="10" stroke-dasharray="none" stroke-opacity="" data-original="#000000" opacity="1"></path><path d="M0 0c-15.311 44.766-49.927 72.581-97.569 83.978" style="stroke-width: 18; stroke-linecap: round; stroke-linejoin: round; stroke-miterlimit: 10; stroke-dasharray: none; stroke-opacity: 1;" transform="translate(411.84 325.041)" fill="none" stroke="#c1e476" stroke-width="18" stroke-linecap="round" stroke-linejoin="round" stroke-miterlimit="10" stroke-dasharray="none" stroke-opacity="" data-original="#000000" opacity="1"></path><path d="M0 0c0 16.141 6.477 30.498 16.537 39.67 6.93 6.318 11.031 15.15 10.893 24.527l-.179 12.056c-.18 12.153-9.253 22.303-21.301 23.91-23.74 3.168-54.245 5.316-74.75-15.795C-106.569 45.483-88.048-64.44-2.821-94.955c15.868-5.682 32.512 6.354 32.263 23.206l-.009.68c-.182 12.239-5.224 23.891-13.99 32.436C6.011-29.437 0-15.548 0 0Z" style="stroke-width: 18; stroke-linecap: round; stroke-linejoin: round; stroke-miterlimit: 10; stroke-dasharray: none; stroke-opacity: 1;" transform="translate(292.766 152.23)" fill="none" stroke="#c1e476" stroke-width="18" stroke-linecap="round" stroke-linejoin="round" stroke-miterlimit="10" stroke-dasharray="none" stroke-opacity="" data-original="#000000" opacity="1"></path><path d="M0 0c-20.507 21.282-51.696 18.815-75.645 15.56-11.977-1.628-20.949-11.8-21.128-23.887l-.171-11.575c-.14-9.445 4.039-18.326 11.078-24.623 10.237-9.16 16.848-23.646 16.848-39.953 0-15.67-6.105-29.66-15.667-38.855-8.922-8.58-14.092-20.335-14.275-32.713-.254-17.116 16.817-29.004 32.846-22.993C-16.826-160.56 18.35-112.963 18.35-57.301 18.35-39.847 15.166-15.737 0 0Z" style="stroke-width: 18; stroke-linecap: round; stroke-linejoin: round; stroke-miterlimit: 10; stroke-dasharray: none; stroke-opacity: 1;" transform="translate(446.981 236.707)" fill="none" stroke="#c1e476" stroke-width="18" stroke-linecap="round" stroke-linejoin="round" stroke-miterlimit="10" stroke-dasharray="none" stroke-opacity="" data-original="#000000" opacity="1"></path></g><g clip-path="url(#b)" transform="matrix(1.33333 0 0 -1.33333 0 682.667)" stroke-width="18" style="stroke-width: 18;"><path d="M0 0c-37.855 23.098-76.417 17.169-104.189 6.588a66.618 66.618 0 0 0-47.498 0c-27.772 10.581-66.334 16.51-104.19-6.588-130.121-79.393-1.817-317.524 76.106-317.524 22.091 0 33.906 11.1 41.107 21.742 5.126 7.576 16.407 7.611 21.57.06 7.287-10.66 19.15-21.802 40.989-21.802C1.817-317.524 130.121-79.393 0 0Z" style="stroke-width: 18; stroke-linecap: round; stroke-linejoin: round; stroke-miterlimit: 10; stroke-dasharray: none; stroke-opacity: 1;" transform="translate(-83.209 331.7)" fill="none" stroke="#c1e476" stroke-width="18" stroke-linecap="round" stroke-linejoin="round" stroke-miterlimit="10" stroke-dasharray="none" stroke-opacity="" data-original="#000000" opacity="1"></path></g></g></svg>